<svg width="84" height="84" viewBox="0 0 84 84" fill="none" xmlns="http://www.w3.org/2000/svg">
<g clip-path="url(#clip0_121_6276)">
<path d="M55.4676 21H28.5324C24.3718 21 21 24.3725 21 28.5324V55.4676C21 59.6282 24.3725 63 28.5324 63H55.4676C59.6282 63 63 59.6275 63 55.4676V28.5324C63 24.3718 59.6275 21 55.4676 21Z" fill="#330000"/>
<path d="M35.2155 32.1481H41.3993L48.3346 51.5088H42.6712L41.7163 48.5622H34.4641L33.5106 51.5095H28.0781L35.2155 32.1481ZM40.2142 43.9672L38.105 37.4651L35.9958 43.9672H40.2142ZM49.1641 33.4199C49.1641 32.0326 50.2338 31.1368 51.8514 31.1368C53.4409 31.1368 54.4522 32.0622 54.4522 33.4199C54.4522 34.8066 53.4409 35.7601 51.8514 35.7601C50.1754 35.7601 49.1641 34.8355 49.1641 33.4199ZM49.3085 36.4256H54.3655V51.5088H49.3085V36.4256Z" fill="#FF9A00"/>
</g>
<defs>
<clipPath id="clip0_121_6276">
<rect width="42" height="42" fill="white" transform="translate(21 21)"/>
</clipPath>
</defs>
</svg>
