<svg width="84" height="84" viewBox="0 0 84 84" fill="none" xmlns="http://www.w3.org/2000/svg">
<g clip-path="url(#clip0_121_6272)">
<path d="M58.4563 17.5H26.9416C24.4375 17.5 22.036 18.4947 20.2654 20.2654C18.4947 22.036 17.5 24.4375 17.5 26.9416V58.4563C17.4997 59.6964 17.7437 60.9243 18.2181 62.0701C18.6925 63.2158 19.3879 64.2569 20.2646 65.1339C21.1414 66.0108 22.1823 66.7065 23.328 67.1811C24.4736 67.6557 25.7015 67.9 26.9416 67.9H58.4563C59.6965 67.9003 60.9247 67.6562 62.0706 67.1817C63.2165 66.7072 64.2576 66.0116 65.1346 65.1346C66.0116 64.2576 66.7072 63.2165 67.1817 62.0706C67.6562 60.9247 67.9003 59.6965 67.9 58.4563V26.9416C67.9 25.7015 67.6557 24.4736 67.1811 23.328C66.7065 22.1823 66.0108 21.1414 65.1339 20.2646C64.2569 19.3879 63.2158 18.6925 62.0701 18.2181C60.9243 17.7437 59.6964 17.4997 58.4563 17.5Z" fill="url(#paint0_linear_121_6272)"/>
<path d="M37.9243 41.3557C38.0948 41.3557 38.2582 41.4234 38.3787 41.5439C38.4992 41.6644 38.5669 41.8279 38.5669 41.9983C38.5669 42.1687 38.4992 42.3322 38.3787 42.4527C38.2582 42.5732 38.0948 42.6409 37.9243 42.6409C37.7539 42.6409 37.5905 42.5732 37.47 42.4527C37.3494 42.3322 37.2817 42.1687 37.2817 41.9983C37.2817 41.8279 37.3494 41.6644 37.47 41.5439C37.5905 41.4234 37.7539 41.3557 37.9243 41.3557Z" fill="url(#paint1_linear_121_6272)"/>
<path fill-rule="evenodd" clip-rule="evenodd" d="M35.1571 37.5783C35.2271 37.5587 35.2943 37.5818 35.3587 37.6476C35.6639 37.9612 35.9719 38.2741 36.2827 38.5863L36.3268 38.6199C36.3464 38.6311 36.3632 38.6381 36.3772 38.6409L37.654 38.9706C37.7422 38.993 37.7961 39.0392 37.8157 39.1092C37.8353 39.182 37.8122 39.2506 37.7464 39.315L36.8077 40.2369L36.7741 40.2831L36.7531 40.3335L36.4234 41.6082C36.4024 41.6964 36.3555 41.7503 36.2827 41.7699C36.2113 41.7895 36.1441 41.7664 36.0811 41.7006L35.1571 40.764C35.13 40.7364 35.0959 40.7167 35.0584 40.7073L33.7837 40.3797C33.6955 40.3587 33.6416 40.3111 33.622 40.2369C33.6024 40.1669 33.6255 40.0997 33.6913 40.0353C34.0049 39.7287 34.3178 39.4207 34.63 39.1113L34.6636 39.0672L34.6846 39.0147L35.0143 37.74C35.0353 37.6518 35.0829 37.5979 35.1571 37.5783Z" fill="url(#paint2_linear_121_6272)"/>
<path d="M48.7273 38.4617C48.8149 38.4567 48.9026 38.4697 48.9851 38.4998C49.0675 38.5298 49.143 38.5764 49.2068 38.6367C49.2706 38.697 49.3214 38.7696 49.3561 38.8502C49.3909 38.9308 49.4088 39.0176 49.4088 39.1054C49.4088 39.1932 49.3909 39.28 49.3561 39.3606C49.3214 39.4412 49.2706 39.5138 49.2068 39.5741C49.143 39.6343 49.0675 39.6809 48.9851 39.711C48.9026 39.7411 48.8149 39.754 48.7273 39.749C48.563 39.7397 48.4084 39.6677 48.2954 39.5481C48.1824 39.4284 48.1194 39.27 48.1194 39.1054C48.1194 38.9408 48.1824 38.7824 48.2954 38.6627C48.4084 38.543 48.563 38.4711 48.7273 38.4617Z" fill="url(#paint3_linear_121_6272)"/>
<path fill-rule="evenodd" clip-rule="evenodd" d="M45.961 34.6924C46.0338 34.6728 46.1017 34.6952 46.1647 34.7596L47.0845 35.7004C47.1113 35.7269 47.1446 35.7458 47.1811 35.755L48.4537 36.0868C48.5419 36.1078 48.5958 36.1554 48.6154 36.2296C48.635 36.2996 48.6112 36.3661 48.544 36.4291L47.6053 37.3489C47.578 37.3754 47.5584 37.4088 47.5486 37.4455L47.2189 38.716C47.1965 38.8042 47.1489 38.8581 47.0761 38.8777C47.0047 38.8973 46.9375 38.8742 46.8745 38.8084C46.5693 38.4934 46.2634 38.1805 45.9568 37.8697C45.9432 37.8557 45.9276 37.8437 45.9106 37.834C45.8942 37.8247 45.8765 37.8176 45.8581 37.813L44.5876 37.4812C44.4994 37.4602 44.4455 37.4133 44.4259 37.3405C44.4077 37.2691 44.4308 37.2019 44.4952 37.1389C44.8088 36.8337 45.1217 36.5278 45.4339 36.2212C45.4479 36.2075 45.4599 36.192 45.4696 36.175L45.4906 36.1225L45.8224 34.852C45.8448 34.7638 45.891 34.7106 45.961 34.6924Z" fill="url(#paint4_linear_121_6272)"/>
<path fill-rule="evenodd" clip-rule="evenodd" d="M36.5367 24.52C38.0542 23.8987 39.7048 23.674 41.3331 23.8669C43.4331 24.1077 45.3042 24.9995 46.9464 26.5423C46.9686 26.5629 46.9955 26.5779 47.0248 26.5859C47.054 26.5939 47.0847 26.5948 47.1144 26.5885C49.2494 26.0372 51.5093 26.2412 53.511 27.166L53.6097 27.2101L53.8533 27.3319C55.9484 28.3932 57.5827 30.1844 58.4481 32.3677C58.8863 33.4387 59.1075 34.5552 59.1117 35.7172C59.1439 36.588 59.0494 37.4448 58.8282 38.2876C58.8164 38.3302 58.8161 38.3751 58.8271 38.4178C58.8382 38.4606 58.8603 38.4997 58.8912 38.5312C60.1277 39.7874 60.9882 41.3644 61.3755 43.084C61.9817 46.0772 61.3608 48.7757 59.5128 51.1795L59.2272 51.5281C58.0028 52.9281 56.3965 53.9404 54.6051 54.4408C54.5661 54.4522 54.5305 54.4729 54.5013 54.501C54.472 54.5292 54.45 54.564 54.4371 54.6025C54.036 55.7596 53.6307 56.7508 52.881 57.7399C50.991 60.2305 48.2169 61.6165 45.0879 61.5997C42.5945 61.5871 40.3846 60.6757 38.4582 58.8655C38.4286 58.8385 38.3926 58.8197 38.3536 58.8109C38.3145 58.802 38.2739 58.8035 38.2356 58.8151C37.4208 59.0776 36.5976 59.1175 35.7093 59.107C34.2902 59.0953 32.8925 58.7599 31.6227 58.1263C30.2927 57.4671 29.1349 56.5063 28.2417 55.3207C27.9225 54.8986 27.6054 54.4996 27.3744 54.0271C27.058 53.3779 26.7981 52.7027 26.5974 52.009C26.1798 50.4279 26.1704 48.7668 26.5701 47.1811C26.5844 47.1443 26.588 47.1043 26.5806 47.0656C26.5715 47.0273 26.5519 46.9924 26.5239 46.9648C25.5549 45.9817 24.813 44.7983 24.3504 43.4977C24.0454 42.6959 23.8682 41.8512 23.8254 40.9945C23.7495 39.8659 23.8494 38.7324 24.1215 37.6345C24.8299 35.2993 26.183 33.466 28.1808 32.1346C28.626 31.8406 29.0467 31.6103 29.4429 31.4437C29.8937 31.2561 30.3459 31.0965 30.7995 30.9649C30.8315 30.9547 30.8606 30.937 30.8844 30.9133C30.9081 30.8895 30.9258 30.8604 30.936 30.8284C31.279 29.5908 31.8706 28.4361 32.6748 27.4348C33.69 26.1473 35.0202 25.1433 36.5367 24.52ZM38.055 36.5635C36.2385 35.2741 33.7542 35.9125 32.8407 37.9411C32.3661 38.9911 32.273 40.0971 32.5614 41.2591L32.7882 42.1831L33.1977 43.6783C33.3657 44.5183 33.687 45.2855 34.1616 45.9799L34.2078 46.0471C34.4598 46.3453 34.7356 46.6176 35.0352 46.864C37.2171 48.6574 40.1928 47.4604 40.7871 44.7808L40.8648 44.4448L40.8858 44.3188C40.9782 43.6888 40.9502 43.0714 40.8018 42.4666C40.538 41.3985 40.2509 40.3364 39.9408 39.2809C39.5992 38.1189 38.9706 37.2131 38.055 36.5635ZM49.2438 33.97C47.8872 32.71 45.7935 32.6617 44.4453 33.9301C43.9189 34.4243 43.5528 35.0886 43.347 35.923C43.1418 36.7689 43.1418 37.6517 43.347 38.4976L43.368 38.5816L43.4562 38.8672C43.6564 39.5294 43.8412 40.1804 44.0106 40.8202C44.1884 41.4866 44.3312 41.9332 44.439 42.16C45.342 44.0605 47.3055 45.4276 49.4412 44.5561C51.4278 43.7455 52.0242 41.3914 51.5748 39.4846C51.5074 39.1961 51.4339 38.909 51.3543 38.6236C51.0407 37.4 50.816 36.5747 50.6802 36.1477C50.4008 35.3083 49.9054 34.5572 49.2438 33.97Z" fill="url(#paint5_linear_121_6272)"/>
</g>
<defs>
<linearGradient id="paint0_linear_121_6272" x1="42.7" y1="17.5" x2="42.7" y2="67.9" gradientUnits="userSpaceOnUse">
<stop stop-color="#012659"/>
<stop offset="1" stop-color="#0968DA"/>
</linearGradient>
<linearGradient id="paint1_linear_121_6272" x1="38.2036" y1="23.7997" x2="47.3597" y2="61.6354" gradientUnits="userSpaceOnUse">
<stop stop-color="white"/>
<stop offset="1" stop-color="#6BB6FE"/>
</linearGradient>
<linearGradient id="paint2_linear_121_6272" x1="38.2042" y1="23.8002" x2="47.3602" y2="61.6359" gradientUnits="userSpaceOnUse">
<stop stop-color="white"/>
<stop offset="1" stop-color="#6BB6FE"/>
</linearGradient>
<linearGradient id="paint3_linear_121_6272" x1="38.2042" y1="23.7995" x2="47.3602" y2="61.6352" gradientUnits="userSpaceOnUse">
<stop stop-color="white"/>
<stop offset="1" stop-color="#6BB6FE"/>
</linearGradient>
<linearGradient id="paint4_linear_121_6272" x1="38.2036" y1="23.7997" x2="47.3596" y2="61.6354" gradientUnits="userSpaceOnUse">
<stop stop-color="white"/>
<stop offset="1" stop-color="#6BB6FE"/>
</linearGradient>
<linearGradient id="paint5_linear_121_6272" x1="38.2041" y1="23.7997" x2="47.3601" y2="61.6354" gradientUnits="userSpaceOnUse">
<stop stop-color="white"/>
<stop offset="1" stop-color="#6BB6FE"/>
</linearGradient>
<clipPath id="clip0_121_6272">
<rect width="50.4" height="50.4" fill="white" transform="translate(17.5 17.5)"/>
</clipPath>
</defs>
</svg>
